<svg xmlns="http://www.w3.org/2000/svg" viewBox="0 0 200 80">
  <!-- K letter -->
  <path d="M10 70 L10 15 L22 15 L22 38 L42 15 L58 15 L35 42 L60 70 L43 70 L22 46 L22 70 Z" fill="#1a1f4e"/>
  
  <!-- i letter with dot -->
  <circle cx="68" cy="18" r="5" fill="#1a1f4e"/>
  <rect x="63" y="28" width="10" height="42" fill="#1a1f4e"/>
  
  <!-- T letter -->
  <path d="M78 15 L118 15 L118 25 L103 25 L103 70 L93 70 L93 25 L78 25 Z" fill="#1a1f4e"/>
  
  <!-- E letter -->
  <path d="M125 15 L165 15 L165 25 L137 25 L137 38 L160 38 L160 48 L137 48 L137 60 L167 60 L167 70 L125 70 Z" fill="#1a1f4e"/>
  
  <!-- Red swoosh/book pages -->
  <path d="M155 8 L185 8 L195 3 L165 3 Z" fill="#c41e3a"/>
  <path d="M150 13 L180 13 L190 8 L160 8 Z" fill="#1a1f4e" opacity="0.6"/>
  <path d="M145 18 L175 18 L185 13 L155 13 Z" fill="#c41e3a" opacity="0.4"/>
  
  <!-- KGISL INSTITUTE OF TECHNOLOGY text -->
  <text x="10" y="82" font-family="Arial, sans-serif" font-size="9" font-weight="bold" fill="#1a1f4e" letter-spacing="1">KGISL INSTITUTE OF TECHNOLOGY</text>
  
  <!-- Tagline -->
  <text x="45" y="92" font-family="Georgia, serif" font-size="7" font-style="italic" fill="#4a5568">co-Kreate your Genius</text>
</svg>